<svg xmlns="http://www.w3.org/2000/svg" xmlns:xlink="http://www.w3.org/1999/xlink" width="24" height="27" viewBox="0 0 24 27"><defs><path id="zi2ca" d="M1550.054 10562.375a.93.93 0 0 0 0-1.318.937.937 0 0 0-1.322 0l-4.946 4.928a4.333 4.333 0 0 0-1.299 3.11c0 1.18.456 2.272 1.3 3.113 1.731 1.724 4.535 1.724 6.244 0l11.168-11.128a6.093 6.093 0 0 0 1.8-4.338 6.088 6.088 0 0 0-1.8-4.337 6.177 6.177 0 0 0-8.729 0l-11.145 11.105a7.815 7.815 0 0 0-2.325 5.585c0 2.113.82 4.109 2.325 5.586a7.878 7.878 0 0 0 5.607 2.318c2.12 0 4.125-.82 5.606-2.318l4.946-4.927a.93.93 0 0 0 0-1.318.94.94 0 0 0-1.322 0l-4.946 4.928a6.045 6.045 0 0 1-4.284 1.773 6.045 6.045 0 0 1-4.285-1.773 5.996 5.996 0 0 1-1.778-4.27c0-1.61.638-3.131 1.778-4.266l11.145-11.105a4.238 4.238 0 0 1 3.031-1.248c1.14 0 2.234.452 3.032 1.248a4.213 4.213 0 0 1 1.253 3.019 4.276 4.276 0 0 1-1.253 3.021l-11.168 11.126c-.98.977-2.599.977-3.602 0a2.519 2.519 0 0 1-.752-1.794c0-.682.274-1.317.752-1.794z"/></defs><g><g transform="translate(-1539 -10550)"><use fill="#87ac13" xlink:href="#zi2ca"/></g></g></svg>