<svg xmlns="http://www.w3.org/2000/svg" width="34.19" height="36" viewBox="0 0 34.19 36">
  <metadata><?xpacket begin="﻿" id="W5M0MpCehiHzreSzNTczkc9d"?>
<x:xmpmeta xmlns:x="adobe:ns:meta/" x:xmptk="Adobe XMP Core 5.6-c142 79.160924, 2017/07/13-01:06:39        ">
   <rdf:RDF xmlns:rdf="http://www.w3.org/1999/02/22-rdf-syntax-ns#">
      <rdf:Description rdf:about=""/>
   </rdf:RDF>
</x:xmpmeta>
                                                                                                    
                                                                                                    
                                                                                                    
                                                                                                    
                                                                                                    
                                                                                                    
                                                                                                    
                                                                                                    
                                                                                                    
                                                                                                    
                                                                                                    
                                                                                                    
                                                                                                    
                                                                                                    
                                                                                                    
                                                                                                    
                                                                                                    
                                                                                                    
                                                                                                    
                                                                                                    
                           
<?xpacket end="w"?></metadata>
<defs>
    <style>
      .cls-1 {
        fill: #1da5d2;
        fill-rule: evenodd;
      }
    </style>
  </defs>
  <path class="cls-1" d="M1327.44,58.7c0-2.491-1.05-3.911-2.27-5.556a21,21,0,0,1-1.99-3.11,60.94,60.94,0,0,1-2.7-6.344,1.8,1.8,0,0,0-1.69-1.185h-23.74a1.8,1.8,0,0,0-1.8,1.8v1.639a8.455,8.455,0,0,0,2.72,6.188c2.32,2.136,5.08,5.634,5.08,10.168a25.693,25.693,0,0,1-2.17,10.008,21.844,21.844,0,0,0-1.3,4.093,1.776,1.776,0,0,0,.4,1.451,1.8,1.8,0,0,0,1.38.644h24.48a0.6,0.6,0,0,0,.6-0.6c0-7.765.94-10.275,1.78-12.491A16.2,16.2,0,0,0,1327.44,58.7Zm-9-15a0.6,0.6,0,0,1,.6.6,65.225,65.225,0,0,0,.29,6.7c-1.12-2.009-2.29-4.455-3.56-7.3h2.67Zm-7.54,0c0.58,0.98,1.3,2.044,2.06,3.166,0.44,0.652.9,1.334,1.36,2.037l0.12,0.189c0.13,0.2.25,0.394,0.38,0.592,0.04,0.071.09,0.142,0.13,0.213,0.24,0.387.48,0.78,0.71,1.176a1.57,1.57,0,0,1,.11.184c0.1,0.178.2,0.354,0.3,0.532,0.06,0.112.13,0.224,0.19,0.337l0.27,0.517c0.06,0.125.12,0.249,0.19,0.375,0.08,0.165.16,0.332,0.24,0.5s0.13,0.308.2,0.464c0.17,0.389.33,0.779,0.48,1.176,0.01,0.041.03,0.083,0.04,0.124,0.08,0.214.15,0.427,0.21,0.642,0.03,0.1.06,0.2,0.09,0.3s0.05,0.181.07,0.273c0.05,0.189.09,0.377,0.13,0.56,0.02,0.076.03,0.152,0.05,0.227,0.04,0.2.07,0.392,0.1,0.579a9.813,9.813,0,0,1,.11,1.433c0,4.937-4.94,6.6-7.2,6.6-1.8,0-5.99-.351-5.99-3.6,0-1.523.87-2.274,1.89-3.143l0.18-.158a0.013,0.013,0,0,1,.01-0.007,0.815,0.815,0,0,1,.1-0.089c0.11-.1.23-0.205,0.34-0.313,0.05-.046.11-0.093,0.16-0.142,0.14-.133.27-0.273,0.4-0.42l0.03-.033c0.05-.06.1-0.12,0.15-0.187l0.05-.06c0.04-.06.09-0.12,0.12-0.16,0-.009.01-0.018,0.01-0.026l0.02-.018c0.09-.139.18-0.286,0.26-0.438,0.03-.059.06-0.125,0.09-0.189l0.06-.141c0.03-.063.05-0.133,0.08-0.2s0.04-.114.06-0.173a3.461,3.461,0,0,0,.13-0.547V55.8a0.974,0.974,0,0,0,.03-0.24,2.334,2.334,0,0,0,.02-0.457c0-.136,0-0.275-0.01-0.4a1.108,1.108,0,0,1-.02-0.172,0.737,0.737,0,0,1-.02-0.142c-0.02-.105-0.03-0.212-0.05-0.321,0-.01-0.01-0.019-0.01-0.029-0.61-3.221-3.54-8.263-4.8-10.337h6.37Zm-5.93,21.453c-0.04-.12-0.07-0.231-0.1-0.345a5.329,5.329,0,0,0,2.64,1.752,4.485,4.485,0,0,0-2.67,3.1h0a1.879,1.879,0,0,1-.19-0.772,1.784,1.784,0,0,1,.23-0.932,2.905,2.905,0,0,0,.37-1.467A4.714,4.714,0,0,0,1304.97,65.162ZM1299.36,77.3a0.619,0.619,0,0,1-.47-0.215,0.579,0.579,0,0,1-.13-0.473A21.017,21.017,0,0,1,1300,72.74a26.955,26.955,0,0,0,2.25-10.437c0-4.968-2.97-8.752-5.46-11.051a7.234,7.234,0,0,1-2.34-5.305V44.307a0.6,0.6,0,0,1,.6-0.6h8.06c0.84,1.326,4.41,7.186,5.04,10.509a0.173,0.173,0,0,0,.01.07,2.418,2.418,0,0,1,.04.3c0.01,0.069.02,0.138,0.03,0.227a2.833,2.833,0,0,1,.01.292,4.609,4.609,0,0,1-.03.525v0.018c-0.01.039-.02,0.075-0.03,0.113a2.145,2.145,0,0,1-.09.354,0.033,0.033,0,0,1-.01.027,1.877,1.877,0,0,1-.13.317c-0.02.036-.03,0.071-0.05,0.1a3.551,3.551,0,0,1-.4.593q-0.18.206-.36,0.394c-0.02.017-.04,0.036-0.06,0.055-0.14.145-.3,0.277-0.45,0.409l-0.27.234a5.176,5.176,0,0,0-2.3,3.876,3.749,3.749,0,0,0-.23,3.4,3.637,3.637,0,0,1,.22.978,1.787,1.787,0,0,1-.24.931,2.9,2.9,0,0,0-.36,1.468,4.374,4.374,0,0,0,1.22,2.658,3.973,3.973,0,0,0,1.29,2.583v0.006l0.04,0.038c0.31,0.31.64,0.6,0.95,0.868a11.274,11.274,0,0,1,.97.886,1.224,1.224,0,0,1,.09.09c0.03,0.027.04,0.05,0.07,0.076,0.06,0.071.12,0.141,0.18,0.213a0.836,0.836,0,0,1,.08.12,2.56,2.56,0,0,1,.16.226,0.707,0.707,0,0,1,.03.071l0.01,0.008a1.543,1.543,0,0,1,.13.284,0.084,0.084,0,0,1,.02.045,1.762,1.762,0,0,1,.07.225h-9.4Zm10.63,0a1.889,1.889,0,0,0-.05-0.247,1.137,1.137,0,0,0-.05-0.18c0-.013-0.01-0.031-0.01-0.046l-0.03-.082a0.306,0.306,0,0,0-.03-0.083,2.549,2.549,0,0,0-.13-0.309,0.506,0.506,0,0,1-.05-0.1,0.578,0.578,0,0,0-.05-0.085,1.512,1.512,0,0,0-.16-0.265V75.893a0.058,0.058,0,0,1-.02-0.034c-0.09-.127-0.18-0.25-0.28-0.368v0c-0.07-.09-0.15-0.18-0.23-0.269-0.06-.064-0.12-0.127-0.16-0.161a2.955,2.955,0,0,0-.22-0.222l-0.37-.34c-0.08-.072-0.16-0.137-0.23-0.2l-0.67-.584a0.885,0.885,0,0,0-.12-0.1c-0.11-.1-0.22-0.208-0.32-0.312a0.019,0.019,0,0,1-.01-0.007,2.732,2.732,0,0,1-.95-1.99c0-2.825,1.76-4.2,5.39-4.2,6.28,0,9.42,3.337,9.59,10.2h-10.84Zm10.85-5.91a8.684,8.684,0,0,0-6.1-5.081,7.427,7.427,0,0,0,4.9-7,11.4,11.4,0,0,0-.23-2.258,1.281,1.281,0,0,1-.04-0.189c-0.05-.226-0.1-0.452-0.16-0.679-0.01-.037-0.02-0.074-0.03-0.113s-0.03-.089-0.04-0.134l-0.09-.3a0.714,0.714,0,0,0-.04-0.13c-0.03-.1-0.06-0.2-0.09-0.3-0.05-.12-0.08-0.247-0.13-0.369l-0.06-.166-0.1-.283-0.15-.359-0.05-.129-0.12-.27c-0.08-.193-0.17-0.387-0.26-0.58-0.06-.137-0.13-0.277-0.19-0.416-0.09-.174-0.18-0.347-0.26-0.52-0.08-.139-0.15-0.279-0.22-0.42l-0.3-.54c-0.06-.124-0.13-0.249-0.2-0.372-0.16-.283-0.33-0.563-0.5-0.84-0.08-.136-0.16-0.269-0.25-0.4-0.09-.161-0.19-0.321-0.3-0.48-0.09-.148-0.18-0.3-0.28-0.444s-0.17-.269-0.26-0.4c-0.11-.165-0.21-0.328-0.32-0.489-0.05-.08-0.11-0.16-0.16-0.24-0.29-.442-0.59-0.877-0.87-1.3-0.59-.86-1.15-1.689-1.63-2.464h2.14a64.182,64.182,0,0,0,5.74,10.91,1.225,1.225,0,0,0-.08.707,27.811,27.811,0,0,1,.13,3.978,6.43,6.43,0,0,0,.6,3.335v8.748h0Zm0.6-12.083a26.649,26.649,0,0,0-.15-4.189c0-.013-0.01-0.037.08-0.064a4.264,4.264,0,0,1,2.47,3.653c0,3.6-.9,3.6-1.2,3.6C1322.05,62.3,1321.44,62.3,1321.44,59.3Zm3.65,5.678c-0.84,2.253-1.8,4.8-1.85,12.315h-1.2V63.441a2.986,2.986,0,0,0,.6.06c2.13,0,2.4-2.563,2.4-4.8a5.381,5.381,0,0,0-3.08-4.7,1.231,1.231,0,0,0-.78-0.137c-0.68-1.454-.86-4.864-0.92-7.394,0.5,1.219,1.12,2.653,1.84,4.1a21.513,21.513,0,0,0,2.11,3.285c1.13,1.535,2.03,2.748,2.03,4.844A15.012,15.012,0,0,1,1325.09,64.982Z" transform="translate(-1293.25 -42.5)"/>
</svg>
