<svg xmlns="http://www.w3.org/2000/svg" width="36.439" height="36.063" viewBox="0 0 36.439 36.063">
  <metadata><?xpacket begin="﻿" id="W5M0MpCehiHzreSzNTczkc9d"?>
<x:xmpmeta xmlns:x="adobe:ns:meta/" x:xmptk="Adobe XMP Core 5.6-c142 79.160924, 2017/07/13-01:06:39        ">
   <rdf:RDF xmlns:rdf="http://www.w3.org/1999/02/22-rdf-syntax-ns#">
      <rdf:Description rdf:about=""/>
   </rdf:RDF>
</x:xmpmeta>
                                                                                                    
                                                                                                    
                                                                                                    
                                                                                                    
                                                                                                    
                                                                                                    
                                                                                                    
                                                                                                    
                                                                                                    
                                                                                                    
                                                                                                    
                                                                                                    
                                                                                                    
                                                                                                    
                                                                                                    
                                                                                                    
                                                                                                    
                                                                                                    
                                                                                                    
                                                                                                    
                           
<?xpacket end="w"?></metadata>
<defs>
    <style>
      .cls-1 {
        fill: #1da5d2;
        fill-rule: evenodd;
      }
    </style>
  </defs>
  <path class="cls-1" d="M983.323,55.768a0.594,0.594,0,0,0-1.014-.419l-2.375,2.375,0.84,0.84,1.361-1.362v6.285h-1.187v1.187h3.562V63.487h-1.187V55.768ZM995.2,59.925a12.469,12.469,0,1,0-12.469,12.47A12.468,12.468,0,0,0,995.2,59.925ZM982.729,71.207a11.282,11.282,0,1,1,11.282-11.282A11.281,11.281,0,0,1,982.729,71.207Zm0-20.783a9.5,9.5,0,1,0,9.5,9.5A9.5,9.5,0,0,0,982.729,50.424Zm0,17.814a8.313,8.313,0,1,1,8.313-8.313A8.313,8.313,0,0,1,982.729,68.238Zm18.051,4.21-3.889-3.888a1.578,1.578,0,0,0,.253-0.311,2.879,2.879,0,0,0,.119-1.942,2.654,2.654,0,0,1-.05-1.111,2.618,2.618,0,0,1,.739-0.794,2.911,2.911,0,0,0,1.173-1.587,2.862,2.862,0,0,0-.552-1.851,2.68,2.68,0,0,1-.43-1.039,2.679,2.679,0,0,1,.432-1.039,2.87,2.87,0,0,0,.552-1.851,2.919,2.919,0,0,0-1.174-1.587,2.632,2.632,0,0,1-.736-0.794,2.642,2.642,0,0,1,.05-1.109,2.892,2.892,0,0,0-.118-1.945,2.911,2.911,0,0,0-1.636-1.077,2.61,2.61,0,0,1-.976-0.5,2.633,2.633,0,0,1-.328-1.051,2.188,2.188,0,0,0-2.675-2.25,2.65,2.65,0,0,1-1.1-.141,2.634,2.634,0,0,1-.659-0.872,2.916,2.916,0,0,0-1.351-1.429,2.881,2.881,0,0,0-1.929.222,1.418,1.418,0,0,1-1.994-.34,2.224,2.224,0,0,0-3.548,0,1.418,1.418,0,0,1-1.994.34,2.881,2.881,0,0,0-1.929-.222,2.923,2.923,0,0,0-1.351,1.429,2.634,2.634,0,0,1-.659.872,2.65,2.65,0,0,1-1.1.141,2.188,2.188,0,0,0-2.675,2.25,2.643,2.643,0,0,1-.327,1.051,2.606,2.606,0,0,1-.976.5,2.91,2.91,0,0,0-1.636,1.079,2.886,2.886,0,0,0-.119,1.945,2.658,2.658,0,0,1,.046,1.109,2.632,2.632,0,0,1-.736.794,2.919,2.919,0,0,0-1.174,1.587,2.876,2.876,0,0,0,.552,1.851,2.679,2.679,0,0,1,.432,1.039,2.679,2.679,0,0,1-.432,1.039,2.873,2.873,0,0,0-.552,1.851,2.908,2.908,0,0,0,1.174,1.587,2.621,2.621,0,0,1,.736.794,2.65,2.65,0,0,1-.05,1.11,2.888,2.888,0,0,0,.118,1.943,1.553,1.553,0,0,0,.254.312l-3.889,3.887a0.594,0.594,0,0,0,.264.993l4.292,1.169L970.4,78.9a0.6,0.6,0,0,0,.421.416,0.6,0.6,0,0,0,.572-0.156l4.572-4.567a2.277,2.277,0,0,0,1.073.973,2.876,2.876,0,0,0,1.929-.222,1.42,1.42,0,0,1,1.994.342,2.215,2.215,0,0,0,3.541,0,2.584,2.584,0,0,1,.9-0.585,2.639,2.639,0,0,1,1.088.244,2.885,2.885,0,0,0,1.93.222A2.274,2.274,0,0,0,989.5,74.6l4.572,4.57a0.595,0.595,0,0,0,.993-0.26l1.169-4.293,4.288-1.169a0.6,0.6,0,0,0,.27-0.993Zm-29.5,5.155-0.989-3.632a0.6,0.6,0,0,0-.416-0.416l-3.633-.989,3.374-3.369c0.113,0.044.227,0.09,0.337,0.13a2.644,2.644,0,0,1,.977.5,2.658,2.658,0,0,1,.327,1.053,2.188,2.188,0,0,0,2.678,2.248,2.662,2.662,0,0,1,1.1.142,1.092,1.092,0,0,1,.291.293Zm17.474-4.06a2.191,2.191,0,0,1-.733.913,2.216,2.216,0,0,1-1.128-.225,3.383,3.383,0,0,0-1.691-.3,3.311,3.311,0,0,0-1.456.838,1.149,1.149,0,0,1-2.031,0,3.308,3.308,0,0,0-1.453-.835,1.879,1.879,0,0,0-.318-0.028,4.2,4.2,0,0,0-1.373.322,2.22,2.22,0,0,1-1.125.224,2.185,2.185,0,0,1-.734-0.913,2.5,2.5,0,0,0-2.769-1.6,2.2,2.2,0,0,1-1.144-.179,2.216,2.216,0,0,1-.374-1.1,2.5,2.5,0,0,0-2.058-2.45,2.233,2.233,0,0,1-1.022-.56,2.23,2.23,0,0,1,.024-1.155,3.37,3.37,0,0,0-.006-1.71,3.326,3.326,0,0,0-1.084-1.291,2.171,2.171,0,0,1-.772-0.891,2.219,2.219,0,0,1,.416-1.062,3.39,3.39,0,0,0,.584-1.621,3.384,3.384,0,0,0-.587-1.623,2.231,2.231,0,0,1-.415-1.062,2.223,2.223,0,0,1,.772-0.891,3.316,3.316,0,0,0,1.083-1.291,3.37,3.37,0,0,0,.006-1.71,2.227,2.227,0,0,1-.023-1.154,2.251,2.251,0,0,1,1.022-.561,2.49,2.49,0,0,0,2.057-2.45,2.236,2.236,0,0,1,.375-1.1,2.244,2.244,0,0,1,1.145-.178,2.491,2.491,0,0,0,2.767-1.6,1.121,1.121,0,0,1,1.862-.688,3.375,3.375,0,0,0,1.691.3,3.311,3.311,0,0,0,1.455-.84,1.15,1.15,0,0,1,2.031,0,3.3,3.3,0,0,0,1.456.838,3.383,3.383,0,0,0,1.691-.3,1.12,1.12,0,0,1,1.862.688,3.336,3.336,0,0,0,1.088,1.3,3.381,3.381,0,0,0,1.68.3,2.244,2.244,0,0,1,1.145.178,2.217,2.217,0,0,1,.374,1.1,2.5,2.5,0,0,0,2.058,2.454,2.22,2.22,0,0,1,1.022.56,2.213,2.213,0,0,1-.024,1.154,3.374,3.374,0,0,0,.006,1.711,3.329,3.329,0,0,0,1.084,1.29,2.169,2.169,0,0,1,.772.891,2.225,2.225,0,0,1-.416,1.063,3.389,3.389,0,0,0-.586,1.62,3.383,3.383,0,0,0,.586,1.624,2.228,2.228,0,0,1,.415,1.061,2.209,2.209,0,0,1-.772.891,3.326,3.326,0,0,0-1.083,1.291A3.362,3.362,0,0,0,996.1,66.5a2.23,2.23,0,0,1,.023,1.155,2.245,2.245,0,0,1-1.022.56,2.492,2.492,0,0,0-2.057,2.449,2.233,2.233,0,0,1-.375,1.1,2.22,2.22,0,0,1-1.145.179A2.5,2.5,0,0,0,988.75,73.543Zm6.838,0.012a0.6,0.6,0,0,0-.416.415L994.183,77.6l-4.038-4.038a1.072,1.072,0,0,1,.29-0.293,2.656,2.656,0,0,1,1.1-.143,2.188,2.188,0,0,0,2.678-2.249,2.639,2.639,0,0,1,.327-1.051,2.643,2.643,0,0,1,.976-0.5c0.111-.04.225-0.087,0.338-0.131l3.373,3.369Z" transform="translate(-964.531 -43.281)"/>
</svg>
