<svg xmlns="http://www.w3.org/2000/svg" xmlns:xlink="http://www.w3.org/1999/xlink" width="51" height="51" viewBox="0 0 51 51"><defs><path id="2enna" d="M1006.908 1552.246c0 13.872-11.286 25.16-25.158 25.16-13.873 0-25.16-11.288-25.16-25.16 0-13.873 11.287-25.158 25.16-25.158a1.024 1.024 0 0 1 0 2.048c-12.744 0-23.111 10.367-23.111 23.11 0 12.744 10.367 23.11 23.11 23.11 12.744 0 23.111-10.366 23.111-23.11 0-3.729-.86-7.287-2.556-10.576a23.328 23.328 0 0 0-6.828-8.018 1.023 1.023 0 1 1 1.218-1.646 25.376 25.376 0 0 1 7.43 8.725 25.227 25.227 0 0 1 2.784 11.515zm-30.566-11.673l18.128 10.792a1.028 1.028 0 0 1 .03 1.742l-12.537 8.077a1.023 1.023 0 1 1-1.11-1.72l11.15-7.183-15.161-9.025v20.67a1.025 1.025 0 1 1-2.048 0v-22.472c0-.367.198-.708.518-.89.32-.182.713-.178 1.03.01z"/></defs><g><g transform="translate(-956 -1527)"><use fill="#fff" xlink:href="#2enna"/></g></g></svg>