<svg xmlns="http://www.w3.org/2000/svg" width="37" height="36.969" viewBox="0 0 37 36.969">
  <metadata><?xpacket begin="﻿" id="W5M0MpCehiHzreSzNTczkc9d"?>
<x:xmpmeta xmlns:x="adobe:ns:meta/" x:xmptk="Adobe XMP Core 5.6-c142 79.160924, 2017/07/13-01:06:39        ">
   <rdf:RDF xmlns:rdf="http://www.w3.org/1999/02/22-rdf-syntax-ns#">
      <rdf:Description rdf:about=""/>
   </rdf:RDF>
</x:xmpmeta>
                                                                                                    
                                                                                                    
                                                                                                    
                                                                                                    
                                                                                                    
                                                                                                    
                                                                                                    
                                                                                                    
                                                                                                    
                                                                                                    
                                                                                                    
                                                                                                    
                                                                                                    
                                                                                                    
                                                                                                    
                                                                                                    
                                                                                                    
                                                                                                    
                                                                                                    
                                                                                                    
                           
<?xpacket end="w"?></metadata>
<defs>
    <style>
      .cls-1 {
        fill: #1da5d2;
        fill-rule: evenodd;
      }
    </style>
  </defs>
  <path class="cls-1" d="M1666.88,65.7h-3.6l-3.33-1.111-1.08-2.708v-2.04a2.775,2.775,0,0,0-2.47-2.744V47.815a0.618,0.618,0,0,0-.44-0.59l-12.33-3.7a0.639,0.639,0,0,0-.36,0l-12.33,3.7a0.618,0.618,0,0,0-.44.59v9.028c0,0.285.02,0.567,0.03,0.852,0.01,0.416.04,0.831,0.08,1.242a1.448,1.448,0,0,0,.02.206,22.767,22.767,0,0,0,12.54,18.211,0.637,0.637,0,0,0,.56,0,22.989,22.989,0,0,0,2.66-1.57,2.478,2.478,0,0,0,.72.664A2.464,2.464,0,0,0,1649,80.5h10.48a0.65,0.65,0,0,0,.35-0.1l3.54-2.364h3.51a0.62,0.62,0,0,0,.62-0.617v-11.1A0.62,0.62,0,0,0,1666.88,65.7Zm-13.34-3.031,0.72,1.8h-3.59a16.009,16.009,0,0,0,2.03-7.68l2.47-.741v0.8c0,0.131-.01.263-0.01,0.395a2.765,2.765,0,0,0-1.84,2.6v1.683A3,3,0,0,0,1653.54,62.667Zm-8.86,4.263a2.474,2.474,0,0,0,.68,1.692c-0.23.166-.45,0.34-0.69,0.493l-1.22.783-1.22-.784a14.752,14.752,0,0,1-5.91-7.416l15.13-4.539a14.772,14.772,0,0,1-2.22,7.3h-2.08A2.472,2.472,0,0,0,1644.68,66.931ZM1632.07,60.6c-0.01-.032-0.01-0.061-0.02-0.092l2.45-.733c0.08,0.37.16,0.739,0.26,1.1l-2.48.746C1632.2,61.271,1632.13,60.935,1632.07,60.6Zm-0.29-2.479,2.44-.732q0.03,0.58.09,1.152l-2.43.731c-0.01-.057-0.01-0.111-0.02-0.167C1631.83,58.791,1631.8,58.469,1631.78,58.125Zm19.69-7.192-16.04,4.809V51.333l8.04-2.871,8,2.284v0.186Zm0,1.287V53.4l-15.95,4.785c-0.04-.384-0.07-0.769-0.08-1.156Zm3.7,1.357v1.179l-2.47.74V54.316Zm0-1.288-2.47.739V51.85l2.47-.739v1.179Zm-19.48,7.131,10.03-3.01,5.75-1.724v1.18l-15.53,4.657C1635.85,60.159,1635.76,59.792,1635.69,59.42Zm-3.96-11.146,11.72-3.514,11.72,3.514v1.55l-2.47.739V50.282a0.613,0.613,0,0,0-.45-0.593l-8.63-2.467a0.633,0.633,0,0,0-.38.011l-8.63,3.084a0.61,0.61,0,0,0-.41.581v5.214l-2.47.74V48.273Zm11.72,27.832a21.592,21.592,0,0,1-10.89-13.281l2.57-.771a16,16,0,0,0,6.43,8.1l1.56,1a0.6,0.6,0,0,0,.66,0l1.56-1,0.01-.011a2.451,2.451,0,0,0,1.15,2.6,2.435,2.435,0,0,0-.58,1.587,2.2,2.2,0,0,0,.01.256A21.63,21.63,0,0,1,1643.45,76.106Zm15.85,3.158H1649a1.229,1.229,0,0,1-.1-2.453,0.623,0.623,0,0,0,.56-0.653,0.61,0.61,0,0,0-.61-0.593h-0.47a1.233,1.233,0,0,1,0-2.466,0.617,0.617,0,1,0,0-1.235h-0.61a1.233,1.233,0,1,1,0-2.465,0.617,0.617,0,0,0,0-1.234h-0.62a1.233,1.233,0,0,1,0-2.466h8.02a0.629,0.629,0,0,0,.51-0.272,0.617,0.617,0,0,0,.06-0.574l-1.06-2.641a1.812,1.812,0,0,1-.13-0.689V59.839a1.54,1.54,0,1,1,3.08,0V62a0.608,0.608,0,0,0,.05.229l1.23,3.083a0.637,0.637,0,0,0,.38.357l3.28,1.094V77.084Zm6.97-2.466h-2.47V66.931h2.47V76.8Zm-3.32-25.382-0.84.9a10.123,10.123,0,0,1,.79.842l0.95-.788A10.329,10.329,0,0,0,1662.95,51.416Zm3.32,7.652q0-.362-0.03-0.718l-1.23.083c0.02,0.209.02,0.42,0.02,0.635,0,0.174,0,.35-0.01.523l1.23,0.07C1666.26,59.463,1666.27,59.267,1666.27,59.068Zm-4.33-8.484a9.214,9.214,0,0,0-1.11-.7l-0.59,1.079a8.944,8.944,0,0,1,.97.616Zm4.16,10.374-1.22-.221a10.579,10.579,0,0,1-.27,1.12l1.17,0.371A11.013,11.013,0,0,0,1666.1,60.958Zm-6.45-11.638a9.846,9.846,0,0,0-1.25-.4l-0.31,1.193a8.26,8.26,0,0,1,1.1.358Zm4.23,14.228,1.08,0.6c0.12-.225.24-0.458,0.35-0.7l-1.12-.516C1664.09,63.144,1663.99,63.348,1663.88,63.548Zm-0.3-9.458a8.056,8.056,0,0,1,.56,1.009l1.11-.53a9.917,9.917,0,0,0-.63-1.144Zm0.99,2.079a8.563,8.563,0,0,1,.29,1.117l1.21-.234a9.214,9.214,0,0,0-.33-1.268Zm-6.33-.909a3.925,3.925,0,0,1,2.48,3.654h1.23a5.137,5.137,0,0,0-3.25-4.8l-0.22-.088-0.46,1.144Z" transform="translate(-1630.5 -43.531)"/>
</svg>
